{"title":"The.Bible.-.The.Gospel.of.John.[2003].DvdRip.XviD-KnÃƒÂ£","uid":6411149,"size":1879971840,"categoryP":"video","categoryS":"movies","magnet":"?xt=urn:btih:feb82b3161963cf783bdd1a257b4b12a53577a96&amp;dn=The.Bible.-.The.Gospel.of.John.%5B2003%5D.DvdRip.XviD-Kn%C3%83%C2%A3&amp;tr=udp%3A%2F%2Ftracker.openbittorrent.com%3A80&amp;tr=udp%3A%2F%2Fopen.demonii.com%3A1337&amp;tr=udp%3A%2F%2Ftracker.coppersurfer.tk%3A6969&amp;tr=udp%3A%2F%2Fexodus.desync.com%3A6969","seeders":3,"leechers":0,"uploader":"Jon.Pson","files":2,"time":1305978888,"description":"The story of Jesus' life as told by the apostle John, narrated by Christopher Plummer. \n\n\nGeneral\nComplete name                    : H:\\Movies\\The.Bible.-.The.Gospel.of.John.[2003].DvdRip.XviD-KnÃƒÂ£\\The.Bible.-.The.Gospel.of.John.[2003].DvdRip.XviD-KnÃƒÂ£.CD1.avi\nFormat                           : AVI\nFormat/Info                      : Audio Video Interleave\nFile size                        : 896 MiB\nDuration                         : 1h 40mn\nOverall bit rate                 : 1 242 Kbps\nWriting application              : VirtualDubMod 1.5.4.1 (build 2178/release)\nWriting library                  : VirtualDubMod build 2178/release\n\nVideo\nID                               : 0\nFormat                           : MPEG-4 Visual\nFormat profile                   : Advanced Simple@L5\nFormat settings, BVOP            : Yes\nFormat settings, QPel            : No\nFormat settings, GMC             : No warppoints\nFormat settings, Matrix          : Custom\nCodec ID                         : XVID\nCodec ID/Hint                    : XviD\nDuration                         : 1h 40mn\nBit rate                         : 787 Kbps\nWidth                            : 624 pixels\nHeight                           : 352 pixels\nDisplay aspect ratio             : 16:9\nFrame rate                       : 23.976 fps\nColor space                      : YUV\nChroma subsampling               : 4:2:0\nBit depth                        : 8 bits\nScan type                        : Progressive\nBits/(Pixel*Frame)               : 0.149\nStream size                      : 568 MiB (63%)\nWriting library                  : XviD 1.2.1 (UTC 2008-12-04)\n\nAudio\nID                               : 1\nFormat                           : AC-3\nFormat/Info                      : Audio Coding 3\nMode extension                   : CM (complete main)\nCodec ID                         : 2000\nDuration                         : 1h 40mn\nBit rate mode                    : Constant\nBit rate                         : 448 Kbps\nChannel(s)                       : 6 channels\nChannel positions                : Front: L C R, Side: L R, LFE\nSampling rate                    : 48.0 KHz\nBit depth                        : 16 bits\nStream size                      : 323 MiB (36%)\nAlignment                        : Split accross interleaves\nInterleave, duration             : 96 ms (2.30 video frames)\nInterleave, preload duration     : 96 ms\nLanguage                         : English\n\n","torrent":{"xt":"urn:btih:feb82b3161963cf783bdd1a257b4b12a53577a96","amp;dn":"The.Bible.-.The.Gospel.of.John.%5B2003%5D.DvdRip.XviD-Kn%C3%83%C2%A3","amp;tr":["udp%3A%2F%2Ftracker.openbittorrent.com%3A80","udp%3A%2F%2Fopen.demonii.com%3A1337","udp%3A%2F%2Ftracker.coppersurfer.tk%3A6969","udp%3A%2F%2Fexodus.desync.com%3A6969"],"infoHash":"feb82b3161963cf783bdd1a257b4b12a53577a96","infoHashBuffer":{"type":"Buffer","data":[254,184,43,49,97,150,60,247,131,189,209,162,87,180,177,42,83,87,122,150]},"announce":[],"urlList":[]}}